<svg width="153" height="135" viewBox="0 0 153 135" fill="none" xmlns="http://www.w3.org/2000/svg">
<g filter="url(#filter0_d_1507_85)">
<mask id="path-1-inside-1_1507_85" fill="white">
<path fill-rule="evenodd" clip-rule="evenodd" d="M70.5897 109.243V79.6775L9.88916 9.26367V38.829L70.5897 109.243Z"/>
</mask>
<path fill-rule="evenodd" clip-rule="evenodd" d="M70.5897 109.243V79.6775L9.88916 9.26367V38.829L70.5897 109.243Z" fill="white"/>
<path d="M70.5897 109.243L69.8323 109.896L71.5897 111.934V109.243H70.5897ZM70.5897 79.6775H71.5897V79.306L71.3471 79.0246L70.5897 79.6775ZM9.88916 9.26367L10.6466 8.61074L8.88916 6.5721V9.26367H9.88916ZM9.88916 38.829H8.88916V39.2005L9.13174 39.4819L9.88916 38.829ZM71.5897 109.243V79.6775H69.5897V109.243H71.5897ZM71.3471 79.0246L10.6466 8.61074L9.13174 9.9166L69.8323 80.3304L71.3471 79.0246ZM8.88916 9.26367V38.829H10.8892V9.26367H8.88916ZM9.13174 39.4819L69.8323 109.896L71.3471 108.59L10.6466 38.1761L9.13174 39.4819Z" fill="black" mask="url(#path-1-inside-1_1507_85)"/>
<mask id="path-3-inside-2_1507_85" fill="white">
<path fill-rule="evenodd" clip-rule="evenodd" d="M9.88919 61.3345V91.1464H35.5887L9.88919 61.3345Z"/>
</mask>
<path fill-rule="evenodd" clip-rule="evenodd" d="M9.88919 61.3345V91.1464H35.5887L9.88919 61.3345Z" fill="white"/>
<path d="M9.88919 61.3345L10.6466 60.6815L8.88919 58.6429V61.3345H9.88919ZM9.88919 91.1464H8.88919V92.1464H9.88919V91.1464ZM35.5887 91.1464V92.1464H37.771L36.3461 90.4935L35.5887 91.1464ZM8.88919 61.3345V91.1464H10.8892V61.3345H8.88919ZM9.88919 92.1464H35.5887V90.1464H9.88919V92.1464ZM36.3461 90.4935L10.6466 60.6815L9.13178 61.9874L34.8313 91.7994L36.3461 90.4935Z" fill="black" mask="url(#path-3-inside-2_1507_85)"/>
<mask id="path-5-inside-3_1507_85" fill="white">
<path fill-rule="evenodd" clip-rule="evenodd" d="M75.7677 57.0935L75.7677 27.2814L50.068 27.2814L75.7677 57.0935Z"/>
</mask>
<path fill-rule="evenodd" clip-rule="evenodd" d="M75.7677 57.0935L75.7677 27.2814L50.068 27.2814L75.7677 57.0935Z" fill="white"/>
<path d="M75.7677 57.0935L75.0103 57.7465L76.7677 59.7851L76.7677 57.0935L75.7677 57.0935ZM75.7677 27.2814L76.7677 27.2814L76.7677 26.2814L75.7677 26.2814L75.7677 27.2814ZM50.068 27.2814L50.068 26.2814L47.8857 26.2814L49.3106 27.9343L50.068 27.2814ZM76.7677 57.0935L76.7677 27.2814L74.7677 27.2814L74.7677 57.0935L76.7677 57.0935ZM75.7677 26.2814L50.068 26.2814L50.068 28.2814L75.7677 28.2814L75.7677 26.2814ZM49.3106 27.9343L75.0103 57.7465L76.5251 56.4406L50.8254 26.6284L49.3106 27.9343Z" fill="black" mask="url(#path-5-inside-3_1507_85)"/>
<mask id="path-7-inside-4_1507_85" fill="white">
<path fill-rule="evenodd" clip-rule="evenodd" d="M91.8619 91.1462L127.896 91.1462L127.896 27.3649L91.8618 27.3649L91.8619 45.8979L112.048 45.8979L112.048 72.7764L91.8619 72.7764L91.8619 91.1462Z"/>
</mask>
<path fill-rule="evenodd" clip-rule="evenodd" d="M91.8619 91.1462L127.896 91.1462L127.896 27.3649L91.8618 27.3649L91.8619 45.8979L112.048 45.8979L112.048 72.7764L91.8619 72.7764L91.8619 91.1462Z" fill="white"/>
<path d="M127.896 91.1462L127.896 92.1462L128.896 92.1462L128.896 91.1462L127.896 91.1462ZM91.8619 91.1462L90.8619 91.1462L90.8619 92.1462L91.8619 92.1462L91.8619 91.1462ZM127.896 27.3649L128.896 27.3649L128.896 26.3649L127.896 26.3649L127.896 27.3649ZM91.8618 27.3649L91.8618 26.3649L90.8618 26.3649L90.8618 27.3649L91.8618 27.3649ZM91.8619 45.8979L90.8619 45.8979L90.8619 46.8979L91.8619 46.8979L91.8619 45.8979ZM112.048 45.8979L113.048 45.8979L113.048 44.8979L112.048 44.8979L112.048 45.8979ZM112.048 72.7764L112.048 73.7764L113.048 73.7764L113.048 72.7764L112.048 72.7764ZM91.8619 72.7764L91.8619 71.7764L90.8619 71.7764L90.8619 72.7764L91.8619 72.7764ZM127.896 90.1462L91.8619 90.1462L91.8619 92.1462L127.896 92.1462L127.896 90.1462ZM126.896 27.3649L126.896 91.1462L128.896 91.1462L128.896 27.3649L126.896 27.3649ZM91.8618 28.3649L127.896 28.3649L127.896 26.3649L91.8618 26.3649L91.8618 28.3649ZM92.8619 45.8979L92.8618 27.3649L90.8618 27.3649L90.8619 45.8979L92.8619 45.8979ZM91.8619 46.8979L112.048 46.8979L112.048 44.8979L91.8619 44.8979L91.8619 46.8979ZM111.048 45.8979L111.048 72.7764L113.048 72.7764L113.048 45.8979L111.048 45.8979ZM112.048 71.7764L91.8619 71.7764L91.8619 73.7764L112.048 73.7764L112.048 71.7764ZM92.8619 91.1462L92.8619 72.7764L90.8619 72.7764L90.8619 91.1462L92.8619 91.1462Z" fill="black" mask="url(#path-7-inside-4_1507_85)"/>
</g>
<defs>
<filter id="filter0_d_1507_85" x="0.88916" y="0.263672" width="152.007" height="133.979" filterUnits="userSpaceOnUse" color-interpolation-filters="sRGB">
<feFlood flood-opacity="0" result="BackgroundImageFix"/>
<feColorMatrix in="SourceAlpha" type="matrix" values="0 0 0 0 0 0 0 0 0 0 0 0 0 0 0 0 0 0 127 0" result="hardAlpha"/>
<feOffset dx="8" dy="8"/>
<feGaussianBlur stdDeviation="8.5"/>
<feComposite in2="hardAlpha" operator="out"/>
<feColorMatrix type="matrix" values="0 0 0 0 0 0 0 0 0 0.819608 0 0 0 0 1 0 0 0 0.55 0"/>
<feBlend mode="normal" in2="BackgroundImageFix" result="effect1_dropShadow_1507_85"/>
<feBlend mode="normal" in="SourceGraphic" in2="effect1_dropShadow_1507_85" result="shape"/>
</filter>
</defs>
</svg>
